<?xml version="1.0" encoding="utf-8"?>
<!-- Generator: Adobe Illustrator 15.0.0, SVG Export Plug-In . SVG Version: 6.00 Build 0)  -->
<!DOCTYPE svg PUBLIC "-//W3C//DTD SVG 1.1//EN" "http://www.w3.org/Graphics/SVG/1.1/DTD/svg11.dtd">
<svg version="1.1" id="Layer_1" xmlns="http://www.w3.org/2000/svg" xmlns:xlink="http://www.w3.org/1999/xlink" x="0px" y="0px"
	 width="247px" height="206.333px" viewBox="157.5 93.167 247 206.333" enable-background="new 157.5 93.167 247 206.333"
	 xml:space="preserve">
<path fill="#EE4646" d="M175.75,258.456c11.101-8.054,22.208-16.105,33.33-24.144c3.942-2.857,5.519-7.589,5.286-12.291
	c-0.316-6.235,0.134-12.543,1.443-18.639c2.773-12.797,9.375-24.608,18.751-33.731c19.414-18.85,49.188-24.144,73.895-13.036
	c11.833,5.309,21.99,14.106,28.979,25.031c7.355,11.501,10.607,24.665,10.467,38.235c-0.021,1.872-0.295,3.802,0.014,5.646
	c0.535,3.238,2.252,6.639,4.962,8.589c1.647,1.195,3.294,2.379,4.935,3.574c7.349,5.321,14.697,10.657,22.046,15.979
	c2.133,1.534,4.258,3.083,6.384,4.624c1.583,1.147,3.555,1.838,5.455,1.035c1.83-0.774,2.675-2.527,3.196-4.322
	c3.308-11.424,6.025-23.426,6.419-35.35c0.873-26.551-8.271-53.426-24.228-74.528c-15.753-20.835-38.222-36.251-63.379-43.318
	c-26.072-7.334-54.453-5.589-79.399,4.969c-23.975,10.137-44.31,28.143-57.354,50.667c-6.609,11.417-11.304,23.934-13.853,36.892
	c-1.309,6.694-2.041,13.501-2.21,20.322c-0.169,7.277,0.683,14.484,1.999,21.638c1.07,5.729,2.393,11.417,3.956,17.034
	c0.296,1.042,0.535,2.14,0.964,3.14C169.239,259.808,172.899,260.512,175.75,258.456"/>
<path fill="#42616F" d="M348.443,248.63c-13.106-9.496-26.22-18.991-39.333-28.494c-6.441-4.659-12.889-9.333-19.322-14
	c-1.633-1.175-3.217-2.527-5.146-3.16c-3.794-1.225-7.482-0.268-10.601,1.985c-13.177,9.565-26.354,19.103-39.538,28.647
	c-10.896,7.898-21.792,15.796-32.675,23.681c-6.398,4.631-12.797,9.264-19.188,13.895c-3.428,2.499-5.293,7.447-2.527,11.234
	c2.302,3.168,4.625,6.319,6.934,9.487c0.866,1.184,1.647,2.449,2.801,3.4c2.598,2.098,6.455,2.738,9.559,1.492
	c1.9-0.781,3.695-1.908,5.49-2.853c8.018-4.209,16.042-8.418,24.045-12.642c13.67-7.18,27.354-14.374,41.023-21.554
	c3.026-1.59,5.856-3.364,9.348-3.716c2.858-0.282,5.941,0.042,8.524,1.394c0.958,0.507,1.894,1,2.844,1.506
	c6.849,3.59,13.691,7.194,20.54,10.784c14.853,7.813,29.698,15.612,44.557,23.426c2.07,1.084,4.146,2.175,6.216,3.268
	c4.314,2.251,9.446,0.591,12.205-3.183c2.457-3.365,4.92-6.729,7.384-10.107c2.717-3.702,2.288-8.819-1.584-11.628
	C369.483,263.876,358.967,256.267,348.443,248.63"/>
</svg>
